<?xml version="1.0" encoding="UTF-8" standalone="no"?>
<!DOCTYPE svg PUBLIC "-//W3C//DTD SVG 1.1//EN"
 "http://www.w3.org/Graphics/SVG/1.1/DTD/svg11.dtd">
<!-- Generated by graphviz version 2.40.1 (20161225.0304)
 -->
<!-- Title: dependencies Pages: 1 -->
<svg width="504pt" height="284pt"
 viewBox="0.00 0.00 504.00 284.00" xmlns="http://www.w3.org/2000/svg" xmlns:xlink="http://www.w3.org/1999/xlink">
<g id="graph0" class="graph" transform="scale(1 1) rotate(0) translate(4 280)">
<title>dependencies</title>
<polygon fill="#ffffff" stroke="transparent" points="-4,4 -4,-280 500,-280 500,4 -4,4"/>
<text text-anchor="start" x="227.0091" y="-42.4" font-family="sans-serif" font-weight="bold" font-size="14.00" fill="#000000">Legend</text>
<polygon fill="#ffffb3" stroke="transparent" points="14,-10 14,-30 34,-30 34,-10 14,-10"/>
<text text-anchor="start" x="37.629" y="-15.4" font-family="sans-serif" font-size="14.00" fill="#000000"> &#160;Declarations</text>
<polygon fill="#8dd3c7" stroke="transparent" points="127,-10 127,-30 147,-30 147,-10 127,-10"/>
<text text-anchor="start" x="150.7251" y="-15.4" font-family="sans-serif" font-size="14.00" fill="#000000"> &#160;Module</text>
<polygon fill="#80b1d3" stroke="transparent" points="213,-10 213,-30 233,-30 233,-10 213,-10"/>
<text text-anchor="start" x="236.7812" y="-15.4" font-family="sans-serif" font-size="14.00" fill="#000000"> &#160;Bootstrap</text>
<polygon fill="#fdb462" stroke="transparent" points="310,-10 310,-30 330,-30 330,-10 310,-10"/>
<text text-anchor="start" x="333.6732" y="-15.4" font-family="sans-serif" font-size="14.00" fill="#000000"> &#160;Providers</text>
<polygon fill="#fb8072" stroke="transparent" points="406,-10 406,-30 426,-30 426,-10 406,-10"/>
<text text-anchor="start" x="429.7258" y="-15.4" font-family="sans-serif" font-size="14.00" fill="#000000"> &#160;Exports</text>
<g id="clust1" class="cluster">
<title>cluster_UsersModule</title>
<polygon fill="none" stroke="#000000" stroke-dasharray="1,5" points="66,-70 66,-268 430,-268 430,-70 66,-70"/>
</g>
<g id="clust4" class="cluster">
<title>cluster_UsersModule_exports</title>
<polygon fill="none" stroke="#000000" points="176,-208 176,-260 286,-260 286,-208 176,-208"/>
</g>
<g id="clust6" class="cluster">
<title>cluster_UsersModule_providers</title>
<polygon fill="none" stroke="#000000" points="74,-78 74,-130 422,-130 422,-78 74,-78"/>
</g>
<!-- UsersService  -->
<g id="node1" class="node">
<title>UsersService </title>
<polygon fill="#fb8072" stroke="#000000" points="277.8493,-252 184.1507,-252 184.1507,-216 277.8493,-216 277.8493,-252"/>
<text text-anchor="middle" x="231" y="-229.8" font-family="Times,serif" font-size="14.00" fill="#000000">UsersService </text>
</g>
<!-- UsersModule -->
<g id="node2" class="node">
<title>UsersModule</title>
<polygon fill="#8dd3c7" stroke="#000000" points="276.9218,-187 273.9218,-191 252.9218,-191 249.9218,-187 185.0782,-187 185.0782,-151 276.9218,-151 276.9218,-187"/>
<text text-anchor="middle" x="231" y="-164.8" font-family="Times,serif" font-size="14.00" fill="#000000">UsersModule</text>
</g>
<!-- UsersModule&#45;&gt;UsersService  -->
<g id="edge1" class="edge">
<title>UsersModule&#45;&gt;UsersService </title>
<path fill="none" stroke="#000000" stroke-dasharray="5,2" d="M231,-187.1061C231,-187.1061 231,-205.991 231,-205.991"/>
<polygon fill="#000000" stroke="#000000" points="227.5001,-205.9909 231,-215.991 234.5001,-205.991 227.5001,-205.9909"/>
</g>
<!-- UserSerializerService -->
<g id="node3" class="node">
<title>UserSerializerService</title>
<ellipse fill="#fdb462" stroke="#000000" cx="319" cy="-104" rx="95.4327" ry="18"/>
<text text-anchor="middle" x="319" y="-99.8" font-family="Times,serif" font-size="14.00" fill="#000000">UserSerializerService</text>
</g>
<!-- UserSerializerService&#45;&gt;UsersModule -->
<g id="edge2" class="edge">
<title>UserSerializerService&#45;&gt;UsersModule</title>
<path fill="none" stroke="#000000" d="M250.2472,-116.5327C250.2472,-116.5327 250.2472,-140.8507 250.2472,-140.8507"/>
<polygon fill="#000000" stroke="#000000" points="246.7473,-140.8506 250.2472,-150.8507 253.7473,-140.8507 246.7473,-140.8506"/>
</g>
<!-- UsersService -->
<g id="node4" class="node">
<title>UsersService</title>
<ellipse fill="#fdb462" stroke="#000000" cx="144" cy="-104" rx="61.9519" ry="18"/>
<text text-anchor="middle" x="144" y="-99.8" font-family="Times,serif" font-size="14.00" fill="#000000">UsersService</text>
</g>
<!-- UsersService&#45;&gt;UsersModule -->
<g id="edge3" class="edge">
<title>UsersService&#45;&gt;UsersModule</title>
<path fill="none" stroke="#000000" d="M195.6328,-114.1563C195.6328,-114.1563 195.6328,-140.8074 195.6328,-140.8074"/>
<polygon fill="#000000" stroke="#000000" points="192.1329,-140.8074 195.6328,-150.8074 199.1329,-140.8075 192.1329,-140.8074"/>
</g>
</g>
</svg>
