<?xml version="1.0" encoding="UTF-8" standalone="no"?>
<!DOCTYPE svg PUBLIC "-//W3C//DTD SVG 1.1//EN"
 "http://www.w3.org/Graphics/SVG/1.1/DTD/svg11.dtd">
<!-- Generated by graphviz version 2.40.1 (20161225.0304)
 -->
<!-- Title: dependencies Pages: 1 -->
<svg width="653pt" height="211pt"
 viewBox="0.00 0.00 653.00 211.00" xmlns="http://www.w3.org/2000/svg" xmlns:xlink="http://www.w3.org/1999/xlink">
<g id="graph0" class="graph" transform="scale(1 1) rotate(0) translate(4 207)">
<title>dependencies</title>
<polygon fill="#ffffff" stroke="transparent" points="-4,4 -4,-207 649,-207 649,4 -4,4"/>
<text text-anchor="start" x="301.5091" y="-42.4" font-family="sans-serif" font-weight="bold" font-size="14.00" fill="#000000">Legend</text>
<polygon fill="#ffffb3" stroke="transparent" points="88.5,-10 88.5,-30 108.5,-30 108.5,-10 88.5,-10"/>
<text text-anchor="start" x="112.129" y="-15.4" font-family="sans-serif" font-size="14.00" fill="#000000"> &#160;Declarations</text>
<polygon fill="#8dd3c7" stroke="transparent" points="201.5,-10 201.5,-30 221.5,-30 221.5,-10 201.5,-10"/>
<text text-anchor="start" x="225.2251" y="-15.4" font-family="sans-serif" font-size="14.00" fill="#000000"> &#160;Module</text>
<polygon fill="#80b1d3" stroke="transparent" points="287.5,-10 287.5,-30 307.5,-30 307.5,-10 287.5,-10"/>
<text text-anchor="start" x="311.2812" y="-15.4" font-family="sans-serif" font-size="14.00" fill="#000000"> &#160;Bootstrap</text>
<polygon fill="#fdb462" stroke="transparent" points="384.5,-10 384.5,-30 404.5,-30 404.5,-10 384.5,-10"/>
<text text-anchor="start" x="408.1732" y="-15.4" font-family="sans-serif" font-size="14.00" fill="#000000"> &#160;Providers</text>
<polygon fill="#fb8072" stroke="transparent" points="480.5,-10 480.5,-30 500.5,-30 500.5,-10 480.5,-10"/>
<text text-anchor="start" x="504.2258" y="-15.4" font-family="sans-serif" font-size="14.00" fill="#000000"> &#160;Exports</text>
<g id="clust1" class="cluster">
<title>cluster_AppModule</title>
<polygon fill="none" stroke="#000000" stroke-dasharray="1,5" points="8,-70 8,-195 637,-195 637,-70 8,-70"/>
</g>
<g id="clust3" class="cluster">
<title>cluster_AppModule_imports</title>
<polygon fill="none" stroke="#000000" points="16,-78 16,-130 629,-130 629,-78 16,-78"/>
</g>
<!-- AuthModule -->
<g id="node1" class="node">
<title>AuthModule</title>
<polygon fill="#8dd3c7" stroke="#000000" points="620.5482,-122 617.5482,-126 596.5482,-126 593.5482,-122 533.4518,-122 533.4518,-86 620.5482,-86 620.5482,-122"/>
<text text-anchor="middle" x="577" y="-99.8" font-family="Times,serif" font-size="14.00" fill="#000000">AuthModule</text>
</g>
<!-- AppModule -->
<g id="node6" class="node">
<title>AppModule</title>
<polygon fill="#8dd3c7" stroke="#000000" points="345.6571,-187 342.6571,-191 321.6571,-191 318.6571,-187 262.3429,-187 262.3429,-151 345.6571,-151 345.6571,-187"/>
<text text-anchor="middle" x="304" y="-164.8" font-family="Times,serif" font-size="14.00" fill="#000000">AppModule</text>
</g>
<!-- AuthModule&#45;&gt;AppModule -->
<g id="edge1" class="edge">
<title>AuthModule&#45;&gt;AppModule</title>
<path fill="none" stroke="#000000" d="M577,-122.2843C577,-143.3211 577,-175 577,-175 577,-175 355.76,-175 355.76,-175"/>
<polygon fill="#000000" stroke="#000000" points="355.76,-171.5001 345.76,-175 355.76,-178.5001 355.76,-171.5001"/>
</g>
<!-- ConfigurationModule -->
<g id="node2" class="node">
<title>ConfigurationModule</title>
<polygon fill="#8dd3c7" stroke="#000000" points="515.094,-122 512.094,-126 491.094,-126 488.094,-122 376.906,-122 376.906,-86 515.094,-86 515.094,-122"/>
<text text-anchor="middle" x="446" y="-99.8" font-family="Times,serif" font-size="14.00" fill="#000000">ConfigurationModule</text>
</g>
<!-- ConfigurationModule&#45;&gt;AppModule -->
<g id="edge2" class="edge">
<title>ConfigurationModule&#45;&gt;AppModule</title>
<path fill="none" stroke="#000000" d="M446,-122.0225C446,-139.3734 446,-163 446,-163 446,-163 355.8367,-163 355.8367,-163"/>
<polygon fill="#000000" stroke="#000000" points="355.8367,-159.5001 345.8367,-163 355.8366,-166.5001 355.8367,-159.5001"/>
</g>
<!-- DatabaseModule -->
<g id="node3" class="node">
<title>DatabaseModule</title>
<polygon fill="#8dd3c7" stroke="#000000" points="359.3501,-122 356.3501,-126 335.3501,-126 332.3501,-122 248.6499,-122 248.6499,-86 359.3501,-86 359.3501,-122"/>
<text text-anchor="middle" x="304" y="-99.8" font-family="Times,serif" font-size="14.00" fill="#000000">DatabaseModule</text>
</g>
<!-- DatabaseModule&#45;&gt;AppModule -->
<g id="edge3" class="edge">
<title>DatabaseModule&#45;&gt;AppModule</title>
<path fill="none" stroke="#000000" d="M304,-122.1061C304,-122.1061 304,-140.991 304,-140.991"/>
<polygon fill="#000000" stroke="#000000" points="300.5001,-140.9909 304,-150.991 307.5001,-140.991 300.5001,-140.9909"/>
</g>
<!-- HealthModule -->
<g id="node4" class="node">
<title>HealthModule</title>
<polygon fill="#8dd3c7" stroke="#000000" points="230.3669,-122 227.3669,-126 206.3669,-126 203.3669,-122 133.6331,-122 133.6331,-86 230.3669,-86 230.3669,-122"/>
<text text-anchor="middle" x="182" y="-99.8" font-family="Times,serif" font-size="14.00" fill="#000000">HealthModule</text>
</g>
<!-- HealthModule&#45;&gt;AppModule -->
<g id="edge4" class="edge">
<title>HealthModule&#45;&gt;AppModule</title>
<path fill="none" stroke="#000000" d="M182,-122.0225C182,-139.3734 182,-163 182,-163 182,-163 252.0145,-163 252.0145,-163"/>
<polygon fill="#000000" stroke="#000000" points="252.0146,-166.5001 262.0145,-163 252.0145,-159.5001 252.0146,-166.5001"/>
</g>
<!-- UsersModule -->
<g id="node5" class="node">
<title>UsersModule</title>
<polygon fill="#8dd3c7" stroke="#000000" points="115.9218,-122 112.9218,-126 91.9218,-126 88.9218,-122 24.0782,-122 24.0782,-86 115.9218,-86 115.9218,-122"/>
<text text-anchor="middle" x="70" y="-99.8" font-family="Times,serif" font-size="14.00" fill="#000000">UsersModule</text>
</g>
<!-- UsersModule&#45;&gt;AppModule -->
<g id="edge5" class="edge">
<title>UsersModule&#45;&gt;AppModule</title>
<path fill="none" stroke="#000000" d="M70,-122.2843C70,-143.3211 70,-175 70,-175 70,-175 252.1655,-175 252.1655,-175"/>
<polygon fill="#000000" stroke="#000000" points="252.1655,-178.5001 262.1655,-175 252.1655,-171.5001 252.1655,-178.5001"/>
</g>
</g>
</svg>
